<svg width="20" height="20" viewBox="0 0 20 20" fill="none" xmlns="http://www.w3.org/2000/svg">
<path fill-rule="evenodd" clip-rule="evenodd" d="M3.17188 5.17202C3.92199 4.42214 4.93922 4.00087 5.99988 4.00087C7.06053 4.00087 8.07777 4.42214 8.82788 5.17202L9.99988 6.34302L11.1719 5.17202C11.5409 4.78998 11.9822 4.48525 12.4703 4.27561C12.9583 4.06598 13.4832 3.95563 14.0143 3.95102C14.5454 3.9464 15.0721 4.04761 15.5637 4.24873C16.0553 4.44986 16.5019 4.74687 16.8775 5.12244C17.253 5.49801 17.55 5.94462 17.7512 6.4362C17.9523 6.92779 18.0535 7.45451 18.0489 7.98562C18.0443 8.51674 17.9339 9.04162 17.7243 9.52964C17.5146 10.0177 17.2099 10.459 16.8279 10.828L9.99988 17.657L3.17188 10.828C2.42199 10.0779 2.00073 9.06068 2.00073 8.00002C2.00073 6.93936 2.42199 5.92213 3.17188 5.17202Z" fill="white"/>
</svg>
